<svg version="1.1" id="Layer_1" xmlns="http://www.w3.org/2000/svg" xmlns:xlink="http://www.w3.org/1999/xlink" x="0px" y="0px"
	 width="100%" viewBox="0 0 1254 1254" enable-background="new 0 0 1254 1254" xml:space="preserve">
<path fill="#070E15" opacity="1.000000" stroke="none" 
	d="
M0.999997,1068.000000 
	C1.000000,776.637329 1.000000,485.274597 1.363657,193.243774 
	C2.925163,172.179794 7.175731,152.419189 15.079132,133.597916 
	C44.242390,64.148170 95.727531,21.230272 169.218063,4.801409 
	C176.720383,3.124262 184.401733,2.247938 192.000000,0.999999 
	C483.029388,1.000000 774.058777,1.000000 1065.712158,1.376393 
	C1072.583618,2.547018 1078.885864,3.043747 1085.070435,4.180459 
	C1167.464233,19.324114 1234.257690,84.584061 1251.190063,166.372482 
	C1252.474976,172.578568 1253.730713,178.790680 1255.000000,185.000000 
	C1255.000000,479.696045 1255.000000,774.392090 1254.650879,1069.751709 
	C1253.131104,1078.125000 1252.668213,1086.022339 1250.681396,1093.515625 
	C1228.941040,1175.510498 1176.788574,1227.476807 1095.130615,1249.838989 
	C1085.969604,1252.347778 1076.387085,1253.316895 1067.000000,1255.000000 
	C773.637268,1255.000000 480.274597,1255.000000 186.315582,1254.625732 
	C182.114014,1253.685059 178.497757,1253.180298 174.905136,1252.542480 
	C126.467468,1243.941772 85.704498,1221.447266 53.006069,1184.672363 
	C26.852449,1155.258179 10.121447,1121.208984 3.738069,1082.225464 
	C2.958040,1077.461914 1.918995,1072.740845 0.999997,1068.000000 
M335.502502,712.783081 
	C335.460052,783.544250 335.417603,854.305359 334.714478,925.392456 
	C306.254395,938.040283 291.300201,966.497803 297.740112,995.754028 
	C303.393951,1021.439331 324.483856,1040.825073 350.129211,1043.910034 
	C377.051605,1047.148560 402.279633,1033.646240 413.991516,1009.730103 
	C425.514923,986.198914 420.867096,957.259399 401.778229,938.888367 
	C396.039185,933.365234 388.613037,929.595215 382.542633,924.419006 
	C382.688629,923.778076 382.962219,923.137268 382.962463,922.496277 
	C382.989014,853.921143 383.003510,785.346069 382.936584,716.770996 
	C382.935364,715.522156 381.949097,714.274292 381.165009,712.514771 
	C381.082458,712.342773 380.999939,712.170776 381.109680,711.461182 
	C381.130432,711.081421 381.151184,710.701660 382.078949,710.195251 
	C390.641998,710.195251 399.205048,710.195251 407.622192,710.195251 
	C407.622192,676.271484 407.622192,643.228577 407.622192,609.796692 
	C398.128021,609.796692 388.994965,609.796692 379.850159,608.884766 
	C379.850159,507.718506 379.850159,406.552277 379.850159,305.010864 
	C391.747467,305.010864 402.859314,305.010864 414.383545,305.010864 
	C414.500122,302.868317 414.669983,301.076385 414.682831,299.283356 
	C414.743713,290.791351 414.664093,282.296417 414.889893,273.809326 
	C414.928162,272.370636 416.214081,270.965179 417.850555,269.746185 
	C442.327118,269.744415 466.803650,269.736938 491.280212,269.741821 
	C589.513794,269.761444 687.747314,269.784882 786.774719,270.099243 
	C813.482239,272.715668 836.609741,283.703461 857.063232,300.608215 
	C881.779297,321.036041 898.434631,346.673370 905.519958,378.518494 
	C905.434387,386.260590 907.162842,393.832428 907.134521,401.632568 
	C906.911682,463.022278 906.995300,524.413147 907.096130,585.803589 
	C907.098999,587.537048 908.345947,589.268494 909.135559,591.747437 
	C909.047607,592.492554 908.959595,593.237732 908.155701,594.199646 
	C907.834656,594.562500 907.341187,594.874939 907.218018,595.295715 
	C904.550171,604.407959 901.924805,613.532715 899.288330,622.654114 
	C898.561157,625.170166 897.824341,627.683411 896.980042,630.877258 
	C881.270996,658.938599 859.940796,680.350098 827.281494,689.121094 
	C823.807007,689.449158 820.332825,690.059082 816.857971,690.063110 
	C760.705750,690.128540 704.553528,690.097229 648.401245,690.129761 
	C613.248108,690.150146 578.094910,690.240417 542.111084,690.193604 
	C541.746765,691.668396 541.068665,693.142395 541.064636,694.618164 
	C540.990234,722.115784 540.993896,749.613708 540.993347,777.111511 
	C540.993347,778.232727 541.112854,779.353882 541.201477,780.911072 
	C556.275452,780.911072 571.057983,780.911072 586.076416,781.837402 
	C586.076416,795.262329 586.076416,808.687195 586.076416,822.741577 
	C600.643555,822.741577 614.537598,822.741577 628.953003,822.741577 
	C628.953003,837.104370 628.953003,850.840698 628.953003,865.052734 
	C643.391052,865.052734 657.295288,865.052734 671.831299,865.052734 
	C671.831299,879.388916 671.831299,893.248901 671.831299,907.544067 
	C686.233704,907.544067 700.001099,907.544067 714.450562,907.544067 
	C714.450562,921.859863 714.450562,935.739075 714.450562,950.228210 
	C729.028381,950.228210 742.922302,950.228210 757.277100,950.228210 
	C757.277100,964.601868 757.277100,978.346191 757.277100,992.598999 
	C771.662842,992.598999 785.575989,992.598999 800.098083,992.598999 
	C800.098083,998.665222 800.098083,1004.223450 800.098083,1010.297974 
	C816.119568,1010.297974 831.528259,1010.297974 847.344971,1010.297974 
	C847.344971,1021.768982 847.344971,1032.710693 847.344971,1043.787231 
	C884.780457,1043.787231 921.791565,1043.787231 958.762756,1043.787231 
	C958.762756,1006.275208 958.762756,969.207397 958.762756,932.121338 
	C921.507507,932.121338 884.624573,932.121338 847.114014,932.121338 
	C847.114014,943.215759 847.114014,953.951538 847.114014,964.889038 
	C841.413269,964.889038 836.344421,964.889038 830.655884,964.889038 
	C830.655884,959.862915 830.655884,955.120239 830.655884,949.815430 
	C820.138184,949.815430 810.226685,949.815430 799.909790,949.815430 
	C799.909790,935.481323 799.909790,921.721680 799.909790,907.205444 
	C785.477722,907.205444 771.458801,907.205444 756.923706,907.205444 
	C756.923706,892.720276 756.923706,878.994202 756.923706,864.859497 
	C742.628296,864.859497 728.867371,864.859497 714.534180,864.859497 
	C714.534180,850.560730 714.534180,836.673950 714.534180,822.325439 
	C700.052063,822.325439 686.145325,822.325439 671.548218,822.325439 
	C671.548218,807.992554 671.548218,794.119629 671.548218,779.694153 
	C656.954407,779.694153 643.054321,779.694153 628.910950,779.694153 
	C628.910950,765.137817 628.910950,751.151184 628.990479,736.621948 
	C628.997437,736.439209 629.004395,736.256531 629.927917,735.869507 
	C691.874268,735.876465 753.821655,736.059631 815.765930,735.704468 
	C825.286438,735.649902 835.120483,734.225098 844.245667,731.527039 
	C874.668152,722.532043 898.424255,703.577576 918.041138,679.194946 
	C938.337097,653.968445 951.035583,625.433350 954.995117,592.707214 
	C955.326782,591.493652 955.947571,590.280273 955.948486,589.066406 
	C955.996399,526.077820 956.002930,463.089142 955.917908,400.100555 
	C955.916077,398.738525 954.801270,397.377991 953.867920,395.193054 
	C952.899963,379.637421 950.050720,364.354248 944.293274,349.940918 
	C916.948364,281.485443 868.828247,237.351364 794.754761,223.076736 
	C791.821228,223.094635 788.887634,223.112534 785.056335,223.255737 
	C782.030884,223.139053 779.005493,223.022369 775.345703,222.377487 
	C769.237061,222.554001 763.128357,222.730515 756.143127,223.097733 
	C753.756348,223.037827 751.369629,222.977936 748.354675,222.384201 
	C743.242004,222.561981 738.129395,222.739761 732.098816,223.106949 
	C727.394470,223.047714 722.690125,222.988464 717.541687,222.453369 
	C716.365601,222.613205 715.189575,222.773041 713.096130,223.123276 
	C708.392822,223.056915 703.689575,222.990555 698.682861,222.516953 
	C698.126465,222.652390 697.570129,222.787811 696.345581,223.105713 
	C695.891968,223.045273 695.438354,222.984848 694.462708,222.424652 
	C692.645630,222.596313 690.828491,222.767975 688.165894,223.130417 
	C686.439331,223.064041 684.712769,222.997665 682.466980,222.429245 
	C680.649597,222.595032 678.832275,222.760818 676.092468,223.116272 
	C666.056702,223.050537 656.020874,222.984818 645.680847,222.514297 
	C645.125488,222.649368 644.570190,222.784439 643.092224,223.108337 
	C631.056152,223.045868 619.020020,222.983383 606.415466,222.407776 
	C603.949463,222.577347 601.483398,222.746918 598.094177,223.103531 
	C581.058655,223.047028 564.023193,222.990524 546.603149,222.475571 
	C545.738892,222.629608 544.874634,222.783661 543.266724,223.124786 
	C542.507935,223.061996 541.749146,222.999207 540.687500,222.523758 
	C540.128540,222.660751 539.569519,222.797729 538.344116,223.118057 
	C537.891663,223.056488 537.439209,222.994919 536.467224,222.429565 
	C534.648621,222.599777 532.830017,222.770004 530.220581,223.130966 
	C529.143555,223.068985 528.066589,223.006989 526.368835,222.397110 
	C520.916504,222.578796 515.464111,222.760498 509.219238,223.131027 
	C508.140991,223.062180 507.062714,222.993332 505.540649,222.451706 
	C504.366089,222.606873 503.191498,222.762054 501.191956,223.102982 
	C499.789551,223.043091 498.387146,222.983215 496.358856,222.385529 
	C491.243866,222.567413 486.128845,222.749298 480.347137,223.118011 
	C479.893921,223.056656 479.440674,222.995285 478.544586,222.456253 
	C477.367401,222.614365 476.190186,222.772461 474.166840,223.116425 
	C472.440857,223.050858 470.714905,222.985291 468.797729,222.634796 
	C468.535431,222.730240 468.273102,222.825668 467.116730,223.110931 
	C464.073914,223.053467 461.031128,222.996002 457.503510,222.444092 
	C456.006256,222.608475 454.508972,222.772842 452.166168,223.127136 
	C450.439789,223.062698 448.713440,222.998260 446.544678,222.455750 
	C445.367737,222.614014 444.190765,222.772278 442.150146,223.118332 
	C440.095032,223.054871 438.039948,222.991409 435.416107,222.412048 
	C432.946777,222.591965 430.477448,222.771866 427.090668,223.147430 
	C423.012909,223.147430 418.935150,223.147430 414.374939,223.147430 
	C414.374939,211.267548 414.374939,200.186005 414.374939,188.991943 
	C376.140381,188.991943 338.419159,188.991943 300.473053,188.991943 
	C300.382965,190.034973 300.254120,190.833710 300.253601,191.632507 
	C300.230438,228.089523 300.209290,264.546539 300.239716,301.003540 
	C300.240906,302.429962 300.747894,303.856018 301.290649,306.006958 
	C302.838623,306.337952 304.382690,306.931824 305.935242,306.954834 
	C312.931732,307.058624 319.946045,307.283264 326.923248,306.902466 
	C331.663330,306.643738 333.137695,308.034241 333.113068,312.934845 
	C332.917328,351.922852 333.005554,390.912292 333.005554,429.901276 
	C333.005554,483.719421 332.986969,537.537598 333.077484,591.355591 
	C333.080658,593.232300 334.166992,595.107178 334.970154,597.882446 
	C335.009369,601.843689 335.048615,605.804993 334.149292,609.913574 
	C325.387390,609.913574 316.625488,609.913574 307.651672,609.913574 
	C307.651672,643.555542 307.651672,676.671936 307.651672,710.369141 
	C317.166321,710.369141 326.278473,710.369141 335.379272,710.896484 
	C335.493317,711.215210 335.607361,711.533936 335.502502,712.783081 
M755.737366,593.989258 
	C758.186401,592.672058 760.635437,591.354797 763.759766,589.898376 
	C787.304993,575.046997 801.331421,553.819275 802.721375,526.035095 
	C804.017883,500.117584 803.455200,474.077667 802.917664,448.108032 
	C802.551331,430.409485 795.796326,414.660706 784.395630,401.139008 
	C771.710205,386.093597 755.950623,376.238220 735.249390,373.672058 
	C733.264893,373.539551 731.280518,373.292389 729.295959,373.291046 
	C654.919739,373.241028 580.543518,373.213684 506.167297,373.183472 
	C503.377533,373.182343 500.587769,373.183289 497.627197,373.183289 
	C497.378174,375.103302 497.190552,376.550049 496.517975,378.373474 
	C496.678772,379.249451 496.839539,380.125427 497.207306,381.889801 
	C497.145020,384.923920 497.082764,387.958069 496.439392,391.593414 
	C496.294312,392.400665 496.023346,393.207794 496.022522,394.015198 
	C495.998993,416.786499 495.986816,439.557831 496.045654,462.329010 
	C496.048828,463.556366 496.685242,464.782043 497.237885,466.844971 
	C497.164551,468.561340 497.091217,470.277679 496.437805,472.595642 
	C496.292267,478.690918 496.015808,484.787048 496.056580,490.881073 
	C496.076935,493.924316 496.677094,496.963684 497.222717,500.842590 
	C497.152710,502.560303 497.082703,504.277985 496.439545,506.588989 
	C496.632233,510.727875 496.824951,514.866760 497.227844,519.884949 
	C497.158142,522.587830 497.088409,525.290649 496.504395,528.424072 
	C496.676575,529.618408 496.848724,530.812744 497.232178,532.874634 
	C497.159332,535.248230 497.086487,537.621826 496.475616,540.498230 
	C496.654968,542.333679 496.834320,544.169128 497.222870,546.859680 
	C497.153717,548.904724 497.084564,550.949768 496.439362,553.590942 
	C496.631470,558.062866 496.823578,562.534729 497.219971,567.657837 
	C497.152924,568.102600 497.085907,568.547302 496.443329,569.584412 
	C496.634064,573.725159 496.824799,577.865967 497.226410,582.885742 
	C497.156708,585.588074 497.087006,588.290466 496.505798,591.421265 
	C496.668488,592.613708 496.831177,593.806152 497.195404,595.683105 
	C497.486389,597.026367 497.777374,598.369690 498.555237,600.399170 
	C499.846924,600.593567 501.138580,600.957703 502.430328,600.958191 
	C578.059448,600.987915 653.688599,600.997009 729.317688,600.927368 
	C730.975891,600.925842 732.633240,599.990051 734.959656,599.158569 
	C741.647156,597.444153 748.334656,595.729675 755.003479,593.997559 
	C755.003479,593.997559 755.011047,594.019226 755.737366,593.989258 
z"/>
<path fill="#FDFCFD" opacity="1.000000" stroke="none" 
	d="
M191.531342,0.999999 
	C184.401733,2.247938 176.720383,3.124262 169.218063,4.801409 
	C95.727531,21.230272 44.242390,64.148170 15.079132,133.597916 
	C7.175731,152.419189 2.925163,172.179794 1.363657,192.787811 
	C1.000000,129.073166 1.000000,65.146324 1.000000,1.000000 
	C64.354057,1.000000 127.708374,1.000000 191.531342,0.999999 
z"/>
<path fill="#FDFCFD" opacity="1.000000" stroke="none" 
	d="
M0.999997,1068.468628 
	C1.918995,1072.740845 2.958040,1077.461914 3.738069,1082.225464 
	C10.121447,1121.208984 26.852449,1155.258179 53.006069,1184.672363 
	C85.704498,1221.447266 126.467468,1243.941772 174.905136,1252.542480 
	C178.497757,1253.180298 182.114014,1253.685059 185.859650,1254.625732 
	C124.405914,1255.000000 62.811832,1255.000000 1.000000,1255.000000 
	C1.000000,1192.979248 1.000000,1130.958252 0.999997,1068.468628 
z"/>
<path fill="#FDFDFD" opacity="1.000000" stroke="none" 
	d="
M1255.000000,184.531342 
	C1253.730713,178.790680 1252.474976,172.578568 1251.190063,166.372482 
	C1234.257690,84.584061 1167.464233,19.324114 1085.070435,4.180459 
	C1078.885864,3.043747 1072.583618,2.547018 1066.167969,1.376393 
	C1128.926025,1.000000 1191.852051,1.000000 1255.000000,1.000000 
	C1255.000000,62.020714 1255.000000,123.041702 1255.000000,184.531342 
z"/>
<path fill="#FDFDFD" opacity="1.000000" stroke="none" 
	d="
M1067.468628,1255.000000 
	C1076.387085,1253.316895 1085.969604,1252.347778 1095.130615,1249.838989 
	C1176.788574,1227.476807 1228.941040,1175.510498 1250.681396,1093.515625 
	C1252.668213,1086.022339 1253.131104,1078.125000 1254.650879,1070.207642 
	C1255.000000,1131.594238 1255.000000,1193.188599 1255.000000,1255.000000 
	C1192.645874,1255.000000 1130.291626,1255.000000 1067.468628,1255.000000 
z"/>
<path fill="#1DE2FB" opacity="1.000000" stroke="none" 
	d="
M682.986206,222.931290 
	C684.712769,222.997665 686.439331,223.064041 689.010193,223.113022 
	C691.564575,223.038559 693.274658,222.981476 694.984741,222.924408 
	C695.438354,222.984848 695.891968,223.045273 697.005493,223.090378 
	C698.105713,223.024750 698.545959,222.974472 698.986267,222.924194 
	C703.689575,222.990555 708.392822,223.056915 713.947449,223.106934 
	C715.861084,223.036804 716.923462,222.983002 717.985779,222.929230 
	C722.690125,222.988464 727.394470,223.047714 733.018188,223.088150 
	C738.952698,223.018921 743.967773,222.968475 748.982849,222.918030 
	C751.369629,222.977936 753.756348,223.037827 757.043152,223.077667 
	C763.955444,223.006958 769.967773,222.956329 775.980042,222.905685 
	C779.005493,223.022369 782.030884,223.139053 785.818237,223.324814 
	C787.246521,223.321121 787.912842,223.248337 788.760498,223.344910 
	C788.941895,223.514267 789.427490,223.609406 789.427490,223.609406 
	C789.427490,223.609406 789.888062,223.428818 790.292969,223.572281 
	C792.127930,223.742767 793.558105,223.769806 794.988220,223.796829 
	C868.828247,237.351364 916.948364,281.485443 944.293274,349.940918 
	C950.050720,364.354248 952.899963,379.637421 954.004883,396.071503 
	C954.184631,462.293243 954.227356,527.636536 954.270081,592.979858 
	C951.035583,625.433350 938.337097,653.968445 918.041138,679.194946 
	C898.424255,703.577576 874.668152,722.532043 844.245667,731.527039 
	C835.120483,734.225098 825.286438,735.649902 815.765930,735.704468 
	C753.821655,736.059631 691.874268,735.876465 629.014282,735.846313 
	C615.338623,735.814636 602.576538,735.780640 589.814880,735.839844 
	C588.639221,735.845337 587.466248,736.445129 586.258850,737.250977 
	C586.097229,752.125671 585.968872,766.518372 585.840515,780.911072 
	C571.057983,780.911072 556.275452,780.911072 541.201477,780.911072 
	C541.112854,779.353882 540.993347,778.232727 540.993347,777.111511 
	C540.993896,749.613708 540.990234,722.115784 541.064636,694.618164 
	C541.068665,693.142395 541.746765,691.668396 542.435059,690.547119 
	C544.498901,691.266418 546.238525,691.951111 547.978516,691.952148 
	C638.574219,692.004578 729.169922,691.999207 819.765625,691.999023 
	C821.097900,691.999023 822.560486,692.333923 823.730103,691.894531 
	C825.270203,691.315796 826.580017,690.124207 827.988831,689.196106 
	C859.940796,680.350098 881.270996,658.938599 897.301208,630.316895 
	C903.289673,618.434937 907.698914,606.717773 908.871582,593.982849 
	C908.959595,593.237732 909.047607,592.492554 909.248047,591.002563 
	C909.467102,589.104492 909.666992,587.951294 909.667114,586.798096 
	C909.673401,524.881592 909.788208,462.964539 909.494446,401.049377 
	C909.457947,393.356232 907.243408,385.673462 906.038086,377.985870 
	C898.434631,346.673370 881.779297,321.036041 857.063232,300.608215 
	C836.609741,283.703461 813.482239,272.715668 786.255005,269.581299 
	C783.698547,268.710907 781.661865,268.050842 779.624939,268.049988 
	C659.804260,267.999817 539.983643,268.003754 420.162964,268.007996 
	C418.841003,268.008026 417.519073,268.080475 416.197113,268.119110 
	C416.439301,268.594208 416.681458,269.069275 416.923615,269.544373 
	C416.214081,270.965179 414.928162,272.370636 414.889893,273.809326 
	C414.664093,282.296417 414.743713,290.791351 414.682831,299.283356 
	C414.669983,301.076385 414.500122,302.868317 414.383545,305.010864 
	C402.859314,305.010864 391.747467,305.010864 379.850159,305.010864 
	C379.850159,406.552277 379.850159,507.718506 379.400024,609.401611 
	C364.329224,609.867737 349.708557,609.816956 335.087860,609.766235 
	C335.048615,605.804993 335.009369,601.843689 334.959930,596.974487 
	C334.971649,595.067749 335.013031,594.068970 335.012817,593.070129 
	C334.993622,500.152222 334.975372,407.234283 334.929321,314.316376 
	C334.927917,311.512207 334.633759,308.708191 334.300201,305.611847 
	C333.501282,305.416229 332.878265,305.512848 331.936920,305.423981 
	C321.418793,305.253082 311.219025,305.267670 301.019226,305.282227 
	C300.747894,303.856018 300.240906,302.429962 300.239716,301.003540 
	C300.209290,264.546539 300.230438,228.089523 300.253601,191.632507 
	C300.254120,190.833710 300.382965,190.034973 300.473053,188.991943 
	C338.419159,188.991943 376.140381,188.991943 414.374939,188.991943 
	C414.374939,200.186005 414.374939,211.267548 414.374939,223.147430 
	C418.935150,223.147430 423.012909,223.147430 427.987183,223.127441 
	C431.250732,223.047607 433.617798,222.987762 435.984833,222.927933 
	C438.039948,222.991409 440.095032,223.054871 442.974731,223.102783 
	C444.861877,223.036087 445.924469,222.984955 446.987061,222.933807 
	C448.713440,222.998260 450.439789,223.062698 452.998657,223.111725 
	C455.216858,223.043716 456.602570,222.991119 457.988312,222.938538 
	C461.031128,222.996002 464.073914,223.053467 467.808411,223.081665 
	C468.663025,223.008148 468.825989,222.963928 468.988922,222.919708 
	C470.714905,222.985291 472.440857,223.050858 474.982697,223.102692 
	C476.861511,223.037292 477.924500,222.985611 478.987457,222.933929 
	C479.440674,222.995285 479.893921,223.056656 481.140991,223.101654 
	C486.951477,223.031311 491.968109,222.977325 496.984741,222.923340 
	C498.387146,222.983215 499.789551,223.043091 501.996643,223.088013 
	C503.862366,223.023514 504.923431,222.973999 505.984467,222.924484 
	C507.062714,222.993332 508.140991,223.062180 510.076294,223.118027 
	C516.285400,223.051682 521.637512,222.998352 526.989563,222.945007 
	C528.066589,223.006989 529.143555,223.068985 531.037781,223.112900 
	C533.565552,223.041000 535.276184,222.987167 536.986755,222.933350 
	C537.439209,222.994919 537.891663,223.056488 539.004272,223.103012 
	C540.106445,223.037445 540.548401,222.986923 540.990356,222.936401 
	C541.749146,222.999207 542.507935,223.061996 544.006836,223.108566 
	C545.493835,223.039566 546.240784,222.986786 546.987671,222.934021 
	C564.023193,222.990524 581.058655,223.047028 598.992798,223.087555 
	C602.255615,223.021347 604.619812,222.971130 606.983948,222.920898 
	C619.020020,222.983383 631.056152,223.045868 643.879028,223.089874 
	C645.105591,223.020645 645.545349,222.969864 645.985107,222.919098 
	C656.020874,222.984818 666.056702,223.050537 676.975159,223.098785 
	C679.567322,223.031296 681.276733,222.981293 682.986206,222.931290 
M335.804260,270.843689 
	C350.747650,270.843689 365.691040,270.843689 380.899414,270.843689 
	C380.899414,254.602280 380.899414,238.904678 380.899414,223.231094 
	C365.048523,223.231094 349.523102,223.231094 333.879181,223.231094 
	C333.879181,238.303864 333.859222,252.954956 333.921661,267.605682 
	C333.926056,268.642059 334.536987,269.675873 335.804260,270.843689 
z"/>
<path fill="#1CE3FC" opacity="1.000000" stroke="none" 
	d="
M736.004822,373.992462 
	C755.950623,376.238220 771.710205,386.093597 784.395630,401.139008 
	C795.796326,414.660706 802.551331,430.409485 802.917664,448.108032 
	C803.455200,474.077667 804.017883,500.117584 802.721375,526.035095 
	C801.331421,553.819275 787.304993,575.046997 763.028137,589.950928 
	C759.868042,591.342041 757.439514,592.680603 755.011047,594.019226 
	C755.011047,594.019226 755.003479,593.997559 754.597412,593.987305 
	C752.243713,594.342468 750.298462,594.720825 748.348083,595.070740 
	C742.839844,596.059021 737.331787,597.876160 731.819885,597.890137 
	C656.495117,598.080688 581.169739,598.022583 505.844482,598.021851 
	C498.984070,598.021790 498.975250,598.009583 498.975006,591.010193 
	C498.972687,521.517639 498.972961,452.025116 498.974121,382.532593 
	C498.974243,374.973541 498.978973,374.970367 506.804565,374.970337 
	C581.129883,374.969849 655.455261,374.978516 729.780579,374.929932 
	C731.855530,374.928589 733.930054,374.318634 736.004822,373.992462 
M541.562622,418.195251 
	C541.562622,418.195251 541.322266,418.561340 541.322266,418.561340 
	C541.322266,418.561340 541.545288,418.938293 541.326599,419.858856 
	C541.303650,447.450928 541.254700,475.042969 541.267334,502.635040 
	C541.275208,519.747009 541.376526,536.858948 541.357788,554.588379 
	C541.836548,554.979187 542.315369,555.369934 542.675781,556.314941 
	C543.048645,556.546631 543.421387,556.981140 543.794250,556.981262 
	C602.321716,557.005432 660.849243,557.008789 719.376587,556.919556 
	C720.579468,556.917664 721.780579,555.826233 723.716919,554.926514 
	C745.061279,551.348694 758.865295,535.373413 759.039185,513.685669 
	C759.180603,496.033447 758.840759,478.376770 759.042236,460.725830 
	C759.348999,433.848785 736.918091,417.097168 715.346008,417.473083 
	C669.393982,418.273865 623.418457,417.711212 577.452576,417.745575 
	C565.967651,417.754181 554.482788,417.907990 542.455139,417.849609 
	C542.303833,417.960144 542.152588,418.070648 541.562622,418.195251 
z"/>
<path fill="#6FEE49" opacity="1.000000" stroke="none" 
	d="
M585.958496,781.374268 
	C585.968872,766.518372 586.097229,752.125671 586.706177,737.296082 
	C601.094727,736.960999 615.002869,737.062805 628.910950,737.164551 
	C628.910950,751.151184 628.910950,765.137817 628.910950,779.694153 
	C643.054321,779.694153 656.954407,779.694153 671.548218,779.694153 
	C671.548218,794.119629 671.548218,807.992554 671.548218,822.325439 
	C686.145325,822.325439 700.052063,822.325439 714.534180,822.325439 
	C714.534180,836.673950 714.534180,850.560730 714.534180,864.859497 
	C728.867371,864.859497 742.628296,864.859497 756.923706,864.859497 
	C756.923706,878.994202 756.923706,892.720276 756.923706,907.205444 
	C771.458801,907.205444 785.477722,907.205444 799.909790,907.205444 
	C799.909790,921.721680 799.909790,935.481323 799.909790,949.815430 
	C810.226685,949.815430 820.138184,949.815430 830.655884,949.815430 
	C830.655884,955.120239 830.655884,959.862915 830.655884,964.889038 
	C836.344421,964.889038 841.413269,964.889038 847.114014,964.889038 
	C847.114014,953.951538 847.114014,943.215759 847.114014,932.121338 
	C884.624573,932.121338 921.507507,932.121338 958.762756,932.121338 
	C958.762756,969.207397 958.762756,1006.275208 958.762756,1043.787231 
	C921.791565,1043.787231 884.780457,1043.787231 847.344971,1043.787231 
	C847.344971,1032.710693 847.344971,1021.768982 847.344971,1010.297974 
	C831.528259,1010.297974 816.119568,1010.297974 800.098083,1010.297974 
	C800.098083,1004.223450 800.098083,998.665222 800.098083,992.598999 
	C785.575989,992.598999 771.662842,992.598999 757.277100,992.598999 
	C757.277100,978.346191 757.277100,964.601868 757.277100,950.228210 
	C742.922302,950.228210 729.028381,950.228210 714.450562,950.228210 
	C714.450562,935.739075 714.450562,921.859863 714.450562,907.544067 
	C700.001099,907.544067 686.233704,907.544067 671.831299,907.544067 
	C671.831299,893.248901 671.831299,879.388916 671.831299,865.052734 
	C657.295288,865.052734 643.391052,865.052734 628.953003,865.052734 
	C628.953003,850.840698 628.953003,837.104370 628.953003,822.741577 
	C614.537598,822.741577 600.643555,822.741577 586.076416,822.741577 
	C586.076416,808.687195 586.076416,795.262329 585.958496,781.374268 
M926.380493,971.588501 
	C926.380493,969.342285 926.380493,967.096069 926.380493,964.674744 
	C910.472595,964.674744 895.384338,964.674744 879.872803,964.674744 
	C879.872803,980.319336 879.872803,995.685608 879.872803,1011.036987 
	C895.425781,1011.036987 910.765869,1011.036987 926.382751,1011.036987 
	C926.382751,997.849121 926.382751,985.206726 926.380493,971.588501 
z"/>
<path fill="#1DE2FB" opacity="1.000000" stroke="none" 
	d="
M380.917389,711.998779 
	C380.999939,712.170776 381.082458,712.342773 381.196014,713.228027 
	C381.225250,783.232666 381.220154,852.523987 381.252380,921.815308 
	C381.252869,922.884399 381.713684,923.953186 381.959717,925.022156 
	C388.613037,929.595215 396.039185,933.365234 401.778229,938.888367 
	C420.867096,957.259399 425.514923,986.198914 413.991516,1009.730103 
	C402.279633,1033.646240 377.051605,1047.148560 350.129211,1043.910034 
	C324.483856,1040.825073 303.393951,1021.439331 297.740112,995.754028 
	C291.300201,966.497803 306.254395,938.040283 335.390991,925.058289 
	C336.377228,922.828003 336.956390,920.932068 336.957733,919.035767 
	C337.005402,851.884705 337.036835,784.733643 336.911194,717.582825 
	C336.903168,713.291382 337.885468,711.783875 342.428955,711.892822 
	C355.251923,712.200256 368.087036,711.999329 380.917389,711.998779 
M364.616760,956.519775 
	C346.176086,952.364929 330.478516,966.419312 331.216949,983.670898 
	C331.832153,998.043701 343.079498,1008.784546 357.307495,1009.485535 
	C370.622711,1010.141541 382.551971,1000.388916 384.855164,986.964294 
	C387.162262,973.517029 379.122894,961.023010 364.616760,956.519775 
z"/>
<path fill="#F93E86" opacity="1.000000" stroke="none" 
	d="
M334.618591,609.839905 
	C349.708557,609.816956 364.329224,609.867737 379.405914,609.857544 
	C388.994965,609.796692 398.128021,609.796692 407.622192,609.796692 
	C407.622192,643.228577 407.622192,676.271484 407.622192,710.195251 
	C399.205048,710.195251 390.641998,710.195251 381.155182,710.149780 
	C365.814606,710.163879 351.397797,710.223389 336.719055,710.202759 
	C336.101624,710.204834 335.746124,710.286987 335.390594,710.369141 
	C326.278473,710.369141 317.166321,710.369141 307.651672,710.369141 
	C307.651672,676.671936 307.651672,643.555542 307.651672,609.913574 
	C316.625488,609.913574 325.387390,609.913574 334.618591,609.839905 
M336.735168,645.583984 
	C336.735168,656.990784 336.735168,668.397583 336.735168,679.974731 
	C350.871338,679.974731 364.389008,679.974731 378.052155,679.974731 
	C378.052155,666.271118 378.052155,652.907898 378.052155,639.356750 
	C364.217590,639.356750 350.697205,639.356750 336.742340,639.356750 
	C336.742340,641.346008 336.742340,642.978210 336.735168,645.583984 
z"/>
<path fill="#1DD9E1" opacity="1.000000" stroke="none" 
	d="
M735.627075,373.832275 
	C733.930054,374.318634 731.855530,374.928589 729.780579,374.929932 
	C655.455261,374.978516 581.129883,374.969849 506.804565,374.970337 
	C498.978973,374.970367 498.974243,374.973541 498.974121,382.532593 
	C498.972961,452.025116 498.972687,521.517639 498.975006,591.010193 
	C498.975250,598.009583 498.984070,598.021790 505.844482,598.021851 
	C581.169739,598.022583 656.495117,598.080688 731.819885,597.890137 
	C737.331787,597.876160 742.839844,596.059021 748.348083,595.070740 
	C750.298462,594.720825 752.243713,594.342468 754.606750,593.996155 
	C748.334656,595.729675 741.647156,597.444153 734.128540,599.271912 
	C695.007385,599.450684 656.717407,599.525696 618.427368,599.578857 
	C578.307678,599.634521 538.188049,599.669128 498.068359,599.712952 
	C497.777374,598.369690 497.486389,597.026367 497.179077,594.945801 
	C497.114288,593.136536 497.065796,592.064697 497.017303,590.992798 
	C497.087006,588.290466 497.156708,585.588074 497.204163,581.988647 
	C497.127533,577.058350 497.073212,573.025208 497.018860,568.992065 
	C497.085907,568.547302 497.152924,568.102600 497.200165,566.873169 
	C497.125366,561.723877 497.070404,557.359375 497.015411,552.994812 
	C497.084564,550.949768 497.153717,548.904724 497.200836,546.008606 
	C497.123749,543.436829 497.068695,541.716125 497.013611,539.995422 
	C497.086487,537.621826 497.159332,535.248230 497.209595,532.044556 
	C497.130890,530.140808 497.074799,529.067200 497.018677,527.993530 
	C497.088409,525.290649 497.158142,522.587830 497.206055,518.987915 
	C497.127106,514.059204 497.069885,510.027435 497.012695,505.995697 
	C497.082703,504.277985 497.152710,502.560303 497.204529,499.961365 
	C497.130219,490.051453 497.074036,481.022736 497.017883,471.994049 
	C497.091217,470.277679 497.164551,468.561340 497.217712,465.964081 
	C497.138550,440.386200 497.079498,415.689178 497.020477,390.992188 
	C497.082764,387.958069 497.145020,384.923920 497.185577,381.074463 
	C497.110199,379.504974 497.056580,378.750885 497.002930,377.996765 
	C497.190552,376.550049 497.378174,375.103302 497.627197,373.183289 
	C500.587769,373.183289 503.377533,373.182343 506.167297,373.183472 
	C580.543518,373.213684 654.919739,373.241028 729.295959,373.291046 
	C731.280518,373.292389 733.264893,373.539551 735.627075,373.832275 
z"/>
<path fill="#1DF8FF" opacity="1.000000" stroke="none" 
	d="
M417.387085,269.645264 
	C416.681458,269.069275 416.439301,268.594208 416.197113,268.119110 
	C417.519073,268.080475 418.841003,268.008026 420.162964,268.007996 
	C539.983643,268.003754 659.804260,267.999817 779.624939,268.049988 
	C781.661865,268.050842 783.698547,268.710907 785.858154,269.435150 
	C687.747314,269.784882 589.513794,269.761444 491.280212,269.741821 
	C466.803650,269.736938 442.327118,269.744415 417.387085,269.645264 
z"/>
<path fill="#020204" opacity="1.000000" stroke="none" 
	d="
M334.476105,305.904083 
	C334.633759,308.708191 334.927917,311.512207 334.929321,314.316376 
	C334.975372,407.234283 334.993622,500.152222 335.012817,593.070129 
	C335.013031,594.068970 334.971649,595.067749 334.849091,596.524780 
	C334.166992,595.107178 333.080658,593.232300 333.077484,591.355591 
	C332.986969,537.537598 333.005554,483.719421 333.005554,429.901276 
	C333.005554,390.912292 332.917328,351.922852 333.113068,312.934845 
	C333.137695,308.034241 331.663330,306.643738 326.923248,306.902466 
	C319.946045,307.283264 312.931732,307.058624 305.935242,306.954834 
	C304.382690,306.931824 302.838623,306.337952 301.154938,305.644592 
	C311.219025,305.267670 321.418793,305.253082 332.487000,305.545288 
	C333.728973,305.869385 334.102539,305.886749 334.476105,305.904083 
z"/>
<path fill="#042427" opacity="1.000000" stroke="none" 
	d="
M905.779053,378.252197 
	C907.243408,385.673462 909.457947,393.356232 909.494446,401.049377 
	C909.788208,462.964539 909.673401,524.881592 909.667114,586.798096 
	C909.666992,587.951294 909.467102,589.104492 909.186646,590.629272 
	C908.345947,589.268494 907.098999,587.537048 907.096130,585.803589 
	C906.995300,524.413147 906.911682,463.022278 907.134521,401.632568 
	C907.162842,393.832428 905.434387,386.260590 905.779053,378.252197 
z"/>
<path fill="#11F5FF" opacity="1.000000" stroke="none" 
	d="
M827.635132,689.158569 
	C826.580017,690.124207 825.270203,691.315796 823.730103,691.894531 
	C822.560486,692.333923 821.097900,691.999023 819.765625,691.999023 
	C729.169922,691.999207 638.574219,692.004578 547.978516,691.952148 
	C546.238525,691.951111 544.498901,691.266418 542.850464,690.599976 
	C578.094910,690.240417 613.248108,690.150146 648.401245,690.129761 
	C704.553528,690.097229 760.705750,690.128540 816.857971,690.063110 
	C820.332825,690.059082 823.807007,689.449158 827.635132,689.158569 
z"/>
<path fill="#1DF8FF" opacity="1.000000" stroke="none" 
	d="
M336.981018,710.282959 
	C351.397797,710.223389 365.814606,710.163879 380.701660,710.213135 
	C381.151184,710.701660 381.130432,711.081421 381.013550,711.729980 
	C368.087036,711.999329 355.251923,712.200256 342.428955,711.892822 
	C337.885468,711.783875 336.903168,713.291382 336.911194,717.582825 
	C337.036835,784.733643 337.005402,851.884705 336.957733,919.035767 
	C336.956390,920.932068 336.377228,922.828003 335.721313,924.895325 
	C335.417603,854.305359 335.460052,783.544250 335.760254,712.180969 
	C336.338989,711.146912 336.660004,710.714966 336.981018,710.282959 
z"/>
<path fill="#020204" opacity="1.000000" stroke="none" 
	d="
M382.251160,924.720581 
	C381.713684,923.953186 381.252869,922.884399 381.252380,921.815308 
	C381.220154,852.523987 381.225250,783.232666 381.324768,713.483643 
	C381.949097,714.274292 382.935364,715.522156 382.936584,716.770996 
	C383.003510,785.346069 382.989014,853.921143 382.962463,922.496277 
	C382.962219,923.137268 382.688629,923.778076 382.251160,924.720581 
z"/>
<path fill="#020000" opacity="1.000000" stroke="none" 
	d="
M954.632568,592.843506 
	C954.227356,527.636536 954.184631,462.293243 954.173767,396.483337 
	C954.801270,397.377991 955.916077,398.738525 955.917908,400.100555 
	C956.002930,463.089142 955.996399,526.077820 955.948486,589.066406 
	C955.947571,590.280273 955.326782,591.493652 954.632568,592.843506 
z"/>
<path fill="#020000" opacity="1.000000" stroke="none" 
	d="
M498.311798,600.056030 
	C538.188049,599.669128 578.307678,599.634521 618.427368,599.578857 
	C656.717407,599.525696 695.007385,599.450684 733.794189,599.437622 
	C732.633240,599.990051 730.975891,600.925842 729.317688,600.927368 
	C653.688599,600.997009 578.059448,600.987915 502.430328,600.958191 
	C501.138580,600.957703 499.846924,600.593567 498.311798,600.056030 
z"/>
<path fill="#042427" opacity="1.000000" stroke="none" 
	d="
M908.513672,594.091248 
	C907.698914,606.717773 903.289673,618.434937 897.357178,629.977173 
	C897.824341,627.683411 898.561157,625.170166 899.288330,622.654114 
	C901.924805,613.532715 904.550171,604.407959 907.218018,595.295715 
	C907.341187,594.874939 907.834656,594.562500 908.513672,594.091248 
z"/>
<path fill="#020000" opacity="1.000000" stroke="none" 
	d="
M496.729919,391.292786 
	C497.079498,415.689178 497.138550,440.386200 497.112213,465.545837 
	C496.685242,464.782043 496.048828,463.556366 496.045654,462.329010 
	C495.986816,439.557831 495.998993,416.786499 496.022522,394.015198 
	C496.023346,393.207794 496.294312,392.400665 496.729919,391.292786 
z"/>
<path fill="#042427" opacity="1.000000" stroke="none" 
	d="
M628.950684,736.893311 
	C615.002869,737.062805 601.094727,736.960999 586.739380,736.814087 
	C587.466248,736.445129 588.639221,735.845337 589.814880,735.839844 
	C602.576538,735.780640 615.338623,735.814636 628.555969,735.948547 
	C629.004395,736.256531 628.997437,736.439209 628.950684,736.893311 
z"/>
<path fill="#020000" opacity="1.000000" stroke="none" 
	d="
M496.727844,472.294861 
	C497.074036,481.022736 497.130219,490.051453 497.100708,499.542480 
	C496.677094,496.963684 496.076935,493.924316 496.056580,490.881073 
	C496.015808,484.787048 496.292267,478.690918 496.727844,472.294861 
z"/>
<path fill="#020204" opacity="1.000000" stroke="none" 
	d="
M775.662842,222.641586 
	C769.967773,222.956329 763.955444,223.006958 757.481445,222.982315 
	C763.128357,222.730515 769.237061,222.554001 775.662842,222.641586 
z"/>
<path fill="#1DD9E1" opacity="1.000000" stroke="none" 
	d="
M755.374207,594.004272 
	C757.439514,592.680603 759.868042,591.342041 762.690552,590.020508 
	C760.635437,591.354797 758.186401,592.672058 755.374207,594.004272 
z"/>
<path fill="#020204" opacity="1.000000" stroke="none" 
	d="
M526.679199,222.671066 
	C521.637512,222.998352 516.285400,223.051682 510.472534,223.023621 
	C515.464111,222.760498 520.916504,222.578796 526.679199,222.671066 
z"/>
<path fill="#020204" opacity="1.000000" stroke="none" 
	d="
M496.671814,222.654434 
	C491.968109,222.977325 486.951477,223.031311 481.474365,223.008240 
	C486.128845,222.749298 491.243866,222.567413 496.671814,222.654434 
z"/>
<path fill="#020204" opacity="1.000000" stroke="none" 
	d="
M748.668762,222.651123 
	C743.967773,222.968475 738.952698,223.018921 733.477173,222.993439 
	C738.129395,222.739761 743.242004,222.561981 748.668762,222.651123 
z"/>
<path fill="#020204" opacity="1.000000" stroke="none" 
	d="
M788.579163,223.175568 
	C787.912842,223.248337 787.246521,223.321121 786.267151,223.262146 
	C788.887634,223.112534 791.821228,223.094635 794.871460,223.436783 
	C793.558105,223.769806 792.127930,223.742767 790.098999,223.443604 
	C789.192749,223.062729 788.885742,223.064102 788.579163,223.175568 
z"/>
<path fill="#020000" opacity="1.000000" stroke="none" 
	d="
M496.727386,553.292847 
	C497.070404,557.359375 497.125366,561.723877 497.098022,566.547546 
	C496.823578,562.534729 496.631470,558.062866 496.727386,553.292847 
z"/>
<path fill="#020000" opacity="1.000000" stroke="none" 
	d="
M496.726135,506.292358 
	C497.069885,510.027435 497.127106,514.059204 497.100952,518.548279 
	C496.824951,514.866760 496.632233,510.727875 496.726135,506.292358 
z"/>
<path fill="#020000" opacity="1.000000" stroke="none" 
	d="
M496.731110,569.288208 
	C497.073212,573.025208 497.127533,577.058350 497.098694,581.549072 
	C496.824799,577.865967 496.634064,573.725159 496.731110,569.288208 
z"/>
<path fill="#020204" opacity="1.000000" stroke="none" 
	d="
M606.699707,222.664337 
	C604.619812,222.971130 602.255615,223.021347 599.454468,222.994019 
	C601.483398,222.746918 603.949463,222.577347 606.699707,222.664337 
z"/>
<path fill="#020204" opacity="1.000000" stroke="none" 
	d="
M435.700470,222.669983 
	C433.617798,222.987762 431.250732,223.047607 428.445923,223.029602 
	C430.477448,222.771866 432.946777,222.591965 435.700470,222.669983 
z"/>
<path fill="#020204" opacity="1.000000" stroke="none" 
	d="
M536.726990,222.681458 
	C535.276184,222.987167 533.565552,223.041000 531.433228,223.017532 
	C532.830017,222.770004 534.648621,222.599777 536.726990,222.681458 
z"/>
<path fill="#020204" opacity="1.000000" stroke="none" 
	d="
M682.726562,222.680267 
	C681.276733,222.981293 679.567322,223.031296 677.436401,223.003937 
	C678.832275,222.760818 680.649597,222.595032 682.726562,222.680267 
z"/>
<path fill="#020000" opacity="1.000000" stroke="none" 
	d="
M496.744629,540.246826 
	C497.068695,541.716125 497.123749,543.436829 497.096252,545.581055 
	C496.834320,544.169128 496.654968,542.333679 496.744629,540.246826 
z"/>
<path fill="#020204" opacity="1.000000" stroke="none" 
	d="
M694.723755,222.674530 
	C693.274658,222.981476 691.564575,223.038559 689.432983,223.017639 
	C690.828491,222.767975 692.645630,222.596313 694.723755,222.674530 
z"/>
<path fill="#020204" opacity="1.000000" stroke="none" 
	d="
M457.745911,222.691315 
	C456.602570,222.991119 455.216858,223.043716 453.421417,223.016754 
	C454.508972,222.772842 456.006256,222.608475 457.745911,222.691315 
z"/>
<path fill="#020000" opacity="1.000000" stroke="none" 
	d="
M496.761536,528.208801 
	C497.074799,529.067200 497.130890,530.140808 497.103943,531.610779 
	C496.848724,530.812744 496.676575,529.618408 496.761536,528.208801 
z"/>
<path fill="#020204" opacity="1.000000" stroke="none" 
	d="
M478.766022,222.695099 
	C477.924500,222.985611 476.861511,223.037292 475.405762,223.009766 
	C476.190186,222.772461 477.367401,222.614365 478.766022,222.695099 
z"/>
<path fill="#020000" opacity="1.000000" stroke="none" 
	d="
M496.761536,591.207031 
	C497.065796,592.064697 497.114288,593.136536 497.078308,594.603516 
	C496.831177,593.806152 496.668488,592.613708 496.761536,591.207031 
z"/>
<path fill="#020204" opacity="1.000000" stroke="none" 
	d="
M446.765869,222.694778 
	C445.924469,222.984955 444.861877,223.036087 443.406555,223.008881 
	C444.190765,222.772278 445.367737,222.614014 446.765869,222.694778 
z"/>
<path fill="#020204" opacity="1.000000" stroke="none" 
	d="
M505.762573,222.688095 
	C504.923431,222.973999 503.862366,223.023514 502.409119,222.995132 
	C503.191498,222.762054 504.366089,222.606873 505.762573,222.688095 
z"/>
<path fill="#020204" opacity="1.000000" stroke="none" 
	d="
M717.763733,222.691284 
	C716.923462,222.983002 715.861084,223.036804 714.406128,223.011734 
	C715.189575,222.773041 716.365601,222.613205 717.763733,222.691284 
z"/>
<path fill="#1DE2FB" opacity="1.000000" stroke="none" 
	d="
M336.719055,710.202820 
	C336.660004,710.714966 336.338989,711.146912 335.869690,711.715759 
	C335.607361,711.533936 335.493317,711.215210 335.384949,710.632812 
	C335.746124,710.286987 336.101624,710.204834 336.719055,710.202820 
z"/>
<path fill="#020204" opacity="1.000000" stroke="none" 
	d="
M546.795410,222.704788 
	C546.240784,222.986786 545.493835,223.039566 544.378662,223.015015 
	C544.874634,222.783661 545.738892,222.629608 546.795410,222.704788 
z"/>
<path fill="#020000" opacity="1.000000" stroke="none" 
	d="
M496.760437,378.185120 
	C497.056580,378.750885 497.110199,379.504974 497.082092,380.630249 
	C496.839539,380.125427 496.678772,379.249451 496.760437,378.185120 
z"/>
<path fill="#020204" opacity="1.000000" stroke="none" 
	d="
M698.834595,222.720566 
	C698.545959,222.974472 698.105713,223.024750 697.339600,222.999146 
	C697.570129,222.787811 698.126465,222.652390 698.834595,222.720566 
z"/>
<path fill="#020204" opacity="1.000000" stroke="none" 
	d="
M645.833008,222.716690 
	C645.545349,222.969864 645.105591,223.020645 644.340332,222.995468 
	C644.570190,222.784439 645.125488,222.649368 645.833008,222.716690 
z"/>
<path fill="#020204" opacity="1.000000" stroke="none" 
	d="
M540.838928,222.730087 
	C540.548401,222.986923 540.106445,223.037445 539.337524,223.011337 
	C539.569519,222.797729 540.128540,222.660751 540.838928,222.730087 
z"/>
<path fill="#020204" opacity="1.000000" stroke="none" 
	d="
M468.893311,222.777252 
	C468.825989,222.963928 468.663025,223.008148 468.255432,222.986755 
	C468.273102,222.825668 468.535431,222.730240 468.893311,222.777252 
z"/>
<path fill="#070F17" opacity="1.000000" stroke="none" 
	d="
M335.335083,270.777283 
	C334.536987,269.675873 333.926056,268.642059 333.921661,267.605682 
	C333.859222,252.954956 333.879181,238.303864 333.879181,223.231094 
	C349.523102,223.231094 365.048523,223.231094 380.899414,223.231094 
	C380.899414,238.904678 380.899414,254.602280 380.899414,270.843689 
	C365.691040,270.843689 350.747650,270.843689 335.335083,270.777283 
z"/>
<path fill="#070E15" opacity="1.000000" stroke="none" 
	d="
M788.760498,223.344925 
	C788.885742,223.064102 789.192749,223.062729 789.694153,223.300140 
	C789.888062,223.428818 789.427490,223.609406 789.427490,223.609406 
	C789.427490,223.609406 788.941895,223.514267 788.760498,223.344925 
z"/>
<path fill="#070E15" opacity="1.000000" stroke="none" 
	d="
M334.300201,305.611847 
	C334.102539,305.886749 333.728973,305.869385 332.805328,305.730743 
	C332.878265,305.512848 333.501282,305.416229 334.300201,305.611847 
z"/>
<path fill="#070E16" opacity="1.000000" stroke="none" 
	d="
M542.997925,417.995056 
	C554.482788,417.907990 565.967651,417.754181 577.452576,417.745575 
	C623.418457,417.711212 669.393982,418.273865 715.346008,417.473083 
	C736.918091,417.097168 759.348999,433.848785 759.042236,460.725830 
	C758.840759,478.376770 759.180603,496.033447 759.039185,513.685669 
	C758.865295,535.373413 745.061279,551.348694 722.882568,555.067261 
	C665.109741,555.254517 608.171143,555.295288 551.232605,555.364868 
	C548.419678,555.368286 545.606934,555.622986 542.794128,555.760742 
	C542.315369,555.369934 541.836548,554.979187 541.743103,554.126587 
	C542.416504,551.761230 542.953979,549.858032 542.956116,547.954102 
	C543.005432,504.634460 542.996155,461.314758 542.997925,417.995056 
z"/>
<path fill="#1DF8FF" opacity="1.000000" stroke="none" 
	d="
M542.734985,556.037842 
	C545.606934,555.622986 548.419678,555.368286 551.232605,555.364868 
	C608.171143,555.295288 665.109741,555.254517 722.515381,555.225525 
	C721.780579,555.826233 720.579468,556.917664 719.376587,556.919556 
	C660.849243,557.008789 602.321716,557.005432 543.794250,556.981262 
	C543.421387,556.981140 543.048645,556.546631 542.734985,556.037842 
z"/>
<path fill="#020000" opacity="1.000000" stroke="none" 
	d="
M542.726562,417.922333 
	C542.996155,461.314758 543.005432,504.634460 542.956116,547.954102 
	C542.953979,549.858032 542.416504,551.761230 541.782166,553.817871 
	C541.376526,536.858948 541.275208,519.747009 541.267334,502.635040 
	C541.254700,475.042969 541.303650,447.450928 541.561890,419.308594 
	C541.930420,418.588959 541.998413,418.396545 542.001282,418.181122 
	C542.152588,418.070648 542.303833,417.960144 542.726562,417.922333 
z"/>
<path fill="#070E16" opacity="1.000000" stroke="none" 
	d="
M541.781982,418.188171 
	C541.998413,418.396545 541.930420,418.588959 541.671265,418.848328 
	C541.545288,418.938293 541.322266,418.561340 541.322266,418.561340 
	C541.322266,418.561340 541.562622,418.195251 541.781982,418.188171 
z"/>
<path fill="#080F15" opacity="1.000000" stroke="none" 
	d="
M926.381592,972.076416 
	C926.382751,985.206726 926.382751,997.849121 926.382751,1011.036987 
	C910.765869,1011.036987 895.425781,1011.036987 879.872803,1011.036987 
	C879.872803,995.685608 879.872803,980.319336 879.872803,964.674744 
	C895.384338,964.674744 910.472595,964.674744 926.380493,964.674744 
	C926.380493,967.096069 926.380493,969.342285 926.381592,972.076416 
z"/>
<path fill="#070F17" opacity="1.000000" stroke="none" 
	d="
M365.017761,956.638916 
	C379.122894,961.023010 387.162262,973.517029 384.855164,986.964294 
	C382.551971,1000.388916 370.622711,1010.141541 357.307495,1009.485535 
	C343.079498,1008.784546 331.832153,998.043701 331.216949,983.670898 
	C330.478516,966.419312 346.176086,952.364929 365.017761,956.638916 
z"/>
<path fill="#070E15" opacity="1.000000" stroke="none" 
	d="
M336.738770,645.097229 
	C336.742340,642.978210 336.742340,641.346008 336.742340,639.356750 
	C350.697205,639.356750 364.217590,639.356750 378.052155,639.356750 
	C378.052155,652.907898 378.052155,666.271118 378.052155,679.974731 
	C364.389008,679.974731 350.871338,679.974731 336.735168,679.974731 
	C336.735168,668.397583 336.735168,656.990784 336.738770,645.097229 
z"/>
</svg>